<svg width="332" height="113" viewBox="0 0 332 113" fill="none" xmlns="http://www.w3.org/2000/svg">
<g clip-path="url(#clip0_4_3)">
<path d="M151.46 23.0163L133.991 24.6367L139.469 91.0833L156.938 89.4628L151.46 23.0163Z" fill="#F37121"/>
<path d="M219.846 16.6001L248.788 13.9001L249.92 27.2001L238.041 28.3001L239.078 41.0001L249.637 40.0001L250.674 52.7001L240.115 53.7001L242.472 81.7001L225.408 83.3001L219.846 16.6001Z" fill="#F37121"/>
<path d="M325.882 6L289 9.34104L290.118 22.5087L300.083 21.6243L304.461 74L321.319 72.526L316.941 20.052L327 19.0694L325.882 6Z" fill="#F37121"/>
<path d="M217.592 43.8889L206.134 44.9517L207.021 55.7106L218.479 54.6479L217.592 43.8889Z" fill="#F37121"/>
<path d="M-0.0996094 37.1L17.3414 35.5C22.8094 35 27.9946 34.9 30.8229 35.5C33.7454 36.1 36.1966 37.6 38.0821 40C40.0619 42.4 41.2875 46.5 41.7588 52.3C42.0417 56.2 41.6646 59 40.6275 60.6C39.4962 62.2 37.2336 63.6 33.6511 64.8C37.7993 65.3 40.6275 66.6 42.2302 68.5C43.8329 70.5 44.8699 73.6 45.1528 77.9L45.6242 84.1C46.0013 88.6 45.7184 92 44.8699 94.2C44.0215 96.5 42.5131 98.1 40.2504 99.1C38.0821 100.1 33.4626 100.9 26.3919 101.6L5.27411 103.6L-0.0996094 37.1ZM18.2842 46.9L19.5098 61.7C20.264 61.6 21.7724 61.5 22.1495 61.4C23.8464 61.2 24.8835 60.7 25.3549 59.8C25.732 58.9 25.8262 56.5 25.4491 52.6C25.2606 50.5 24.9778 49.1 24.5064 48.3C24.035 47.5 23.4693 47 22.9037 46.9C22.2438 46.6 20.0754 46.7 18.2842 46.9ZM20.3582 72L21.8667 90.6C24.3178 90.3 26.769 89.7 27.4289 88.9C28.0889 88.2 28.2774 86.4 27.9946 83.8L27.5232 77.6C27.3347 74.8 26.8633 73.1 26.2033 72.5C25.5434 71.9 22.998 71.8 20.3582 72Z" fill="#F37121"/>
<path d="M201.839 45.4L184.21 47L183.55 39.5C183.267 36.1 182.89 34.1 182.513 33.3C182.041 32.5 181.193 32.2 179.873 32.3C178.459 32.4 177.516 33 177.233 34.1C176.951 35.2 176.951 37.4 177.233 40.7L179.496 67.7C179.779 70.9 180.156 73 180.627 74C181.099 74.9 182.041 75.4 183.361 75.2C184.681 75.1 185.53 74.5 185.812 73.5C186.095 72.5 186.19 70.1 185.812 66.5L185.058 57.9L202.688 56.3L203.065 61.1C203.631 68 203.536 72.9 202.782 75.9C202.028 78.9 200.048 81.6 196.843 84.1C193.637 86.6 189.489 88.1 184.587 88.5C179.402 89 175.065 88.5 171.577 86.9C168.089 85.4 165.637 83 164.318 79.9C162.998 76.8 162.055 71.9 161.489 65.4L159.887 46C159.51 41.2 159.321 37.6 159.51 35.2C159.604 32.8 160.452 30.4 161.961 28C163.469 25.6 165.637 23.7 168.466 22.1C171.294 20.6 174.688 19.6 178.459 19.2C183.644 18.7 188.075 19.3 191.563 21C195.146 22.7 197.503 24.9 198.823 27.7C200.142 30.5 200.991 35.1 201.557 41.3L201.839 45.4Z" fill="#F37121"/>
<path d="M77.9614 30L83.3351 29L67.3082 29.7001L73.9075 20.1L65.8941 28.3L64.0086 16.3L64.1028 28.5L55.1466 22.1L62.8772 30L47.416 32.2001H52.6955L49.3015 99.4001L67.4025 97.7L67.4968 85.7L73.719 85.1001L75.6045 97L93.4226 95.3L77.9614 30ZM84.9378 93.8C83.7122 94 81.8267 93.1001 80.7896 92.9001C80.1297 92.8001 79.3755 93 78.9984 92.5C78.9041 92.1 78.9041 91.7001 78.8099 91.4001C78.4328 91.1001 78.0557 90.8001 77.6785 90.4001C77.2072 89.6001 77.49 88.8 77.0186 88C76.1701 86.4 74.8503 84.7001 73.9075 83.1001C73.1533 81.8 73.059 80.5001 72.2106 79.4001C71.7392 78.8001 70.985 78.4001 70.5136 77.8001C69.5708 76.5001 68.3452 73.2 66.4597 73.1C65.1399 75.8 63.82 78.7001 63.0658 81.9001C63.0658 82.7001 63.0658 83.4 63.0658 84.2C62.8772 84.8 62.4059 85.5 62.2173 86.3C62.0288 87 61.8402 89.3 62.0288 90C62.123 90.3 61.8402 90.6001 61.9345 91.3C62.0288 91.9 62.2173 93.3 61.6517 93.6001C61.2746 93.7001 60.8032 93.8 60.3318 94.1001C60.1432 94.2001 58.7291 95.9 58.4463 96.3C57.0321 96.4 55.9008 96 55.9008 95.7C55.9008 95.4 55.5237 94.6 56.1837 94.2C56.4665 94 57.1264 93.1 57.0321 92.7C56.9379 92.5 57.5035 91.8 57.5978 91.3C57.7864 90.4 57.6921 90.0001 57.8806 89.1001C57.9749 87.5001 58.0692 85.9 58.1635 84.2C58.5406 82.5 59.2005 81.0001 59.4833 79.3001C59.389 78.4001 59.6719 70.8001 60.049 68.9001C60.1432 68.4001 60.4261 67.6 60.4261 67.1C60.5204 66.6 60.9917 65.8001 61.1803 65.4001C61.2746 64.9001 60.8975 64.8001 61.086 64.3001C61.3688 63.6001 61.9345 62.9001 62.2173 62.2001C62.5944 61.1001 62.5001 60.2 62.9715 59.1C63.3486 58.2 64.1028 57.1001 64.3857 56.2001C64.5742 55.4001 65.517 53.2001 65.7055 52.7001C65.9883 51.6001 65.4227 50.3 65.6112 49C65.9883 46.7001 65.7998 43.8 65.2341 41.8C64.7628 40.4 65.2341 38 65.517 37.1C65.517 37.1 65.517 37.1 65.517 37C65.517 36.9 65.517 36.9001 65.517 36.9001C65.517 36.8001 65.4227 36.7001 65.4227 36.4001V36.3C65.3284 36.2 65.2341 36.1 65.1399 36C65.1399 35.9 65.0456 35.8 65.0456 35.8V35.7001C65.0456 35.7001 65.0456 35.6 64.9513 35.6L64.857 35.5C64.857 35.4 64.857 35.4 64.857 35.3C64.857 35.2 64.857 35.2 64.857 35.1C64.857 35 64.857 34.9001 64.857 34.9001C64.857 34.8001 64.857 34.7001 64.857 34.7001C64.857 34.6 64.9513 34.6 65.0456 34.6H65.1399C65.2341 34.6 65.2341 34.6 65.3284 34.5C65.3284 34.5 65.3284 34.5001 65.3284 34.4001C65.3284 34.3001 65.3284 34.3001 65.4227 34.2001C65.4227 34.2001 65.4227 34.1 65.517 34.1C65.517 34 65.6112 34 65.6112 34C65.6112 34 65.7055 34 65.7998 34C65.8941 34 65.8941 34 65.9883 34H66.0826C66.1769 34 66.1769 33.9001 66.2712 33.9001C66.2712 33.9001 66.2712 33.9 66.2712 33.8C66.2712 33.8 66.2712 33.7 66.3655 33.6C66.3655 33.6 66.3655 33.5 66.4597 33.5C66.554 33.5 66.554 33.4 66.6483 33.5C66.7426 33.5 66.8368 33.6 66.8368 33.6C66.9311 33.6 67.0254 33.7001 67.0254 33.7001C67.1197 33.7001 67.1197 33.7001 67.2139 33.7001C67.3082 33.7001 67.3082 33.6 67.4025 33.6C67.4968 33.6 67.591 33.6 67.591 33.7001C67.591 33.8001 67.6853 33.8001 67.6853 33.9001C67.6853 34.0001 67.6853 34.1 67.6853 34.2001C67.6853 34.3001 67.6853 34.4001 67.6853 34.4001C67.6853 34.5001 67.6853 34.5 67.6853 34.6C67.6853 34.7 67.6853 34.9 67.591 35V35.1V35.2001C67.6853 35.3001 67.6853 35.3001 67.7796 35.4001C67.8739 35.4001 67.8739 35.5 67.8739 35.6C67.8739 35.7 67.8739 35.8001 67.8739 35.9001C67.8739 35.9001 67.8739 35.9 67.8739 36C67.8739 36.1 67.7796 36.1 67.7796 36.2001C67.7796 36.2001 67.6853 36.2 67.6853 36.3C67.4968 36.4 67.4025 36.5 67.2139 36.6C67.2139 36.6 67.2139 36.7 67.2139 36.8C67.2139 37 67.2139 37.2001 67.2139 37.4001C67.2139 37.5001 67.2139 37.5 67.2139 37.6C67.2139 37.7 67.2139 37.8001 67.2139 37.9001C67.3082 39.0001 67.591 40.2 67.8739 41.1C68.0624 41.9 67.591 43.5 67.9681 44.5C68.251 45.5 68.5338 46.6 68.8166 47.6C68.8166 48.3 68.9109 49 68.9109 49.8C69.0052 50 69.3823 50.6 69.4765 50.8C69.8537 51.7001 69.5708 52 70.7021 52C70.7021 51.9001 70.0422 50 70.325 49.1C70.985 47.4 70.0422 46.8 71.6449 46.1C72.5877 45.2 74.756 45.9 75.2274 46.8C75.6988 47.3 75.6988 48 75.6045 48.5C75.6988 49.1 75.4159 50.7001 75.2274 50.9001C74.9446 51.4001 74.6617 51.9001 74.3789 52.4001C74.0961 52.8001 73.5304 53.1 73.3419 53.6C72.4934 55.8 74.756 57.1 74.2846 59C74.1903 59.3 73.719 60.4001 73.5304 60.7001C73.1533 61 72.8705 61.3 72.4934 61.7001C72.022 62.7001 72.2105 63.7001 71.8334 64.8001C71.6449 65.3001 71.0792 66.3 71.4563 67.1C71.5506 67.5 72.022 67.8 72.2106 68.1C72.3048 68.6 72.3991 69.1 72.3991 69.6C72.8705 70.7 73.8132 71.8001 74.3789 72.9001C75.2274 75 75.4159 77.3 76.453 79.1C77.0186 80.2 78.2442 81 78.9041 82C79.6583 83.1 79.6583 84.4 80.4125 85.5C81.5439 87.1 82.0152 89.6001 83.8065 90.6001C87.5775 92.6001 85.2206 93.7001 84.9378 93.8Z" fill="#F37121"/>
<path d="M130.001 45.3001L113.786 46.8001L113.408 41.9001C113.22 39.6001 112.937 38.2001 112.466 37.6001C111.994 37.0001 111.24 36.8001 110.297 36.8001C109.26 36.9001 108.506 37.4001 108.035 38.3001C107.563 39.2001 107.375 40.5001 107.563 42.2001C107.752 44.4001 108.223 46.1001 108.883 47.1001C109.543 48.2001 111.334 49.4001 114.163 50.7001C122.27 54.5001 127.55 57.8001 129.812 60.6001C132.075 63.3001 133.489 68.0001 133.961 74.5001C134.338 79.2001 134.055 82.8001 133.112 85.1001C132.169 87.5001 130.19 89.5001 127.078 91.3001C123.967 93.1001 120.291 94.2001 116.048 94.6001C111.334 95.0001 107.281 94.5001 103.887 93.1001C100.398 91.7001 98.0415 89.6001 96.8159 87.0001C95.5903 84.4001 94.7418 80.6001 94.3647 75.6001L93.9876 71.2001L110.203 69.7001L110.863 77.8001C111.052 80.3001 111.429 81.9001 111.9 82.5001C112.371 83.2001 113.22 83.4001 114.445 83.3001C115.577 83.2001 116.425 82.7001 116.897 81.7001C117.368 80.7001 117.557 79.4001 117.462 77.6001C117.179 73.7001 116.425 71.2001 115.2 70.1001C113.974 69.0001 111.146 67.2001 106.526 64.8001C101.907 62.4001 98.89 60.6001 97.3815 59.4001C95.8731 58.2001 94.5533 56.6001 93.422 54.4001C92.2907 52.2001 91.6307 49.4001 91.3479 45.8001C90.9708 40.7001 91.2536 36.9001 92.3849 34.4001C93.5162 31.9001 95.496 29.9001 98.3243 28.3001C101.153 26.7001 104.641 25.7001 108.789 25.3001C113.314 24.9001 117.274 25.2001 120.573 26.4001C123.873 27.6001 126.136 29.2001 127.361 31.3001C128.587 33.4001 129.435 37.1001 129.812 42.4001L130.001 45.3001Z" fill="#F37121"/>
<path d="M283.222 9.95056L299.597 74.7667L281.152 76.4666L279.163 64.7285L272.701 65.3241L272.72 77.2436L254.061 78.9632L257.159 12.3525L283.222 9.95056ZM277.575 53.1174C275.976 45.7542 274.216 36.6443 272.294 25.7876C271.627 38.5216 271.333 47.8208 271.413 53.6853L277.575 53.1174Z" fill="#F37121"/>
</g>
<defs>
<clipPath id="clip0_4_3">
<rect width="331.5" height="112.7" fill="white"/>
</clipPath>
</defs>
</svg>
