<svg width="25" height="25" viewBox="0 0 25 25" fill="none" xmlns="http://www.w3.org/2000/svg">
<mask id="mask0_57_19" style="mask-type:alpha" maskUnits="userSpaceOnUse" x="0" y="0" width="25" height="25">
<rect x="0.810669" y="0.394531" width="24" height="24" fill="#D9D9D9"/>
</mask>
<g mask="url(#mask0_57_19)">
<path d="M6.81067 14.3945C6.81067 15.2612 6.98567 16.082 7.33567 16.857C7.68567 17.632 8.18567 18.3112 8.83567 18.8945C8.819 18.8112 8.81067 18.7362 8.81067 18.6695V18.4445C8.81067 17.9112 8.91067 17.4112 9.11067 16.9445C9.31067 16.4779 9.60234 16.0529 9.98567 15.6695L12.8107 12.8945L15.6357 15.6695C16.019 16.0529 16.3107 16.4779 16.5107 16.9445C16.7107 17.4112 16.8107 17.9112 16.8107 18.4445V18.6695C16.8107 18.7362 16.8023 18.8112 16.7857 18.8945C17.4357 18.3112 17.9357 17.632 18.2857 16.857C18.6357 16.082 18.8107 15.2612 18.8107 14.3945C18.8107 13.5612 18.6565 12.7737 18.3482 12.032C18.0398 11.2904 17.594 10.6279 17.0107 10.0445C16.6773 10.2612 16.3273 10.4237 15.9607 10.532C15.594 10.6404 15.219 10.6945 14.8357 10.6945C13.8023 10.6945 12.9065 10.3529 12.1482 9.66953C11.3898 8.9862 10.9523 8.14453 10.8357 7.14453C10.1857 7.69453 9.61067 8.26536 9.11067 8.85703C8.61067 9.4487 8.18984 10.0487 7.84817 10.657C7.5065 11.2654 7.24817 11.8862 7.07317 12.5195C6.89817 13.1529 6.81067 13.7779 6.81067 14.3945ZM12.8107 15.6945L11.3857 17.0945C11.2023 17.2779 11.0607 17.4862 10.9607 17.7195C10.8607 17.9529 10.8107 18.1945 10.8107 18.4445C10.8107 18.9779 11.0065 19.4362 11.3982 19.8195C11.7898 20.2029 12.2607 20.3945 12.8107 20.3945C13.3607 20.3945 13.8315 20.2029 14.2232 19.8195C14.6148 19.4362 14.8107 18.9779 14.8107 18.4445C14.8107 18.1779 14.7607 17.932 14.6607 17.707C14.5607 17.482 14.419 17.2779 14.2357 17.0945L12.8107 15.6945ZM12.8107 3.39453V6.69453C12.8107 7.2612 13.0065 7.7362 13.3982 8.11953C13.7898 8.50286 14.269 8.69453 14.8357 8.69453C15.1357 8.69453 15.4148 8.63203 15.6732 8.50703C15.9315 8.38203 16.1607 8.19453 16.3607 7.94453L16.8107 7.39453C18.044 8.09453 19.019 9.06953 19.7357 10.3195C20.4523 11.5695 20.8107 12.9279 20.8107 14.3945C20.8107 16.6279 20.0357 18.5195 18.4857 20.0695C16.9357 21.6195 15.044 22.3945 12.8107 22.3945C10.5773 22.3945 8.68567 21.6195 7.13567 20.0695C5.58567 18.5195 4.81067 16.6279 4.81067 14.3945C4.81067 12.2445 5.5315 10.2029 6.97317 8.26953C8.41484 6.3362 10.3607 4.7112 12.8107 3.39453Z" fill="#1C1B1F"/>
</g>
</svg>
